<svg id="Layer_1" data-name="Layer 1" xmlns="http://www.w3.org/2000/svg" xmlns:xlink="http://www.w3.org/1999/xlink" viewBox="0 0 1439 1079.25"><defs><style>.cls-1{fill:#b3b3b3;}.cls-2{fill:url(#radial-gradient);}</style><radialGradient id="radial-gradient" cx="719.5" cy="539.63" r="635.95" gradientUnits="userSpaceOnUse"><stop offset="0" stop-color="#fff" stop-opacity="0"/><stop offset="0.2" stop-color="#fff" stop-opacity="0.01"/><stop offset="0.34" stop-color="#fff" stop-opacity="0.05"/><stop offset="0.45" stop-color="#fff" stop-opacity="0.1"/><stop offset="0.56" stop-color="#fff" stop-opacity="0.19"/><stop offset="0.65" stop-color="#fff" stop-opacity="0.3"/><stop offset="0.74" stop-color="#fff" stop-opacity="0.43"/><stop offset="0.83" stop-color="#fff" stop-opacity="0.59"/><stop offset="0.91" stop-color="#fff" stop-opacity="0.77"/><stop offset="0.99" stop-color="#fff" stop-opacity="0.97"/><stop offset="1" stop-color="#fff"/></radialGradient></defs><path class="cls-1" d="M1439,978.52v-.78l-72.43,41.82-91.77-53,91.77-53L1439,955.42v-.78l-71.76-41.43L1439,871.78V871l-72.43,41.81-91.77-53,91.77-53L1439,848.68v-.77l-71.76-41.44L1439,765v-.77l-72.43,41.82-91.77-53,91.76-53L1439,741.94v-.77l-71.77-41.43L1439,658.3v-.77l-72.44,41.82-91.77-53,91.77-53L1439,635.21v-.77L1367.23,593,1439,551.56v-.77l-72.44,41.82-91.77-53,91.77-53L1439,528.47v-.77l-71.77-41.44L1439,444.82v-.77l-72.44,41.83-91.77-53,91.77-53L1439,421.74V421l-71.78-41.44L1439,338.09v-.78l-72.44,41.83-91.77-53,91.76-53L1439,315v-.77l-71.78-41.44L1439,231.35v-.78l-72.45,41.83-91.77-53,91.77-53L1439,208.27v-.78l-71.78-41.44L1439,124.61v-.77l-72.45,41.82-91.77-53,91.77-53L1439,101.53v-.77l-71.78-41.45L1439,17.87V17.1l-72.45,41.83-91.77-53L1285.07,0h-1.33l-9.63,5.56L1264.48,0h-1.34l10.3,5.94-91.77,53-91.77-53L1100.2,0h-1.34l-9.63,5.56L1079.61,0h-1.34l10.3,5.94-91.77,53L905,5.94,915.32,0H914l-9.62,5.55L894.74,0H893.4l10.29,5.94-91.77,53-91.76-53L730.44,0H729.1l-9.61,5.55L709.87,0h-1.34l10.29,5.94-91.77,53-91.77-53L545.57,0h-1.34l-9.62,5.55L525,0h-1.34l10.28,5.94-91.76,53-91.77-53L360.69,0h-1.34l-9.61,5.55L340.13,0h-1.34l10.28,5.94-91.77,53-91.77-53L175.81,0h-1.34l-9.61,5.55L155.25,0h-1.33L164.2,5.93l-91.77,53L0,17.1v.77L71.76,59.3,0,100.73v.78L72.43,59.69l91.77,53-91.77,53L0,123.84v.77L71.76,166,0,207.47v.77l72.43-41.81,91.77,53-91.77,53L0,230.57v.77l71.76,41.44L0,314.21V315l72.43-41.82,91.77,53-91.76,53L0,337.31v.77l71.77,41.43L0,421v.77L72.44,379.9l91.77,53-91.77,53L0,444v.77l71.77,41.44L0,527.69v.77l72.44-41.82,91.77,53-91.77,53L0,550.78v.77L71.77,593,0,634.43v.77l72.44-41.83,91.77,53-91.77,53L0,657.51v.78l71.78,41.44L0,741.17v.77l72.44-41.83,91.77,53-91.76,53L0,764.25V765l71.78,41.44L0,847.9v.78l72.45-41.83,91.77,53-91.77,53L0,871v.78L71.78,913.2,0,954.64v.78l72.45-41.83,91.77,53-91.77,53L0,977.72v.77l71.78,41.45L0,1061.38v.77l72.45-41.83,91.77,53-10.29,5.94h1.34l9.62-5.56,9.63,5.56h1.34l-10.3-5.94,91.77-53,91.77,53-10.3,5.94h1.34l9.63-5.56,9.62,5.56h1.34l-10.29-5.94,91.76-53,91.77,53-10.29,5.94H525l9.62-5.55,9.62,5.55h1.34l-10.29-5.94,91.76-53,91.77,53-10.28,5.94h1.34l9.61-5.55,9.62,5.55h1.34l-10.29-5.94,91.77-53,91.77,53-10.29,5.94h1.34l9.62-5.55,9.61,5.55h1.34l-10.28-5.94,91.76-53,91.77,53-10.28,5.94h1.34l9.61-5.55,9.61,5.55h1.34l-10.28-5.94,91.77-53,91.77,53-10.28,5.93h1.34l9.61-5.55,9.61,5.55h1.33l-10.27-5.93,91.76-53,72.43,41.82v-.77L1367.24,1020Zm-73.1-65.31-91.77,53-91.77-53,91.77-53ZM626.4,593l-91.77,53-91.77-53,91.77-53ZM442.86,486.25l91.76-53,91.77,53-91.76,53Zm92.44,53.37,91.76-53,91.77,53-91.77,53Zm92.43-53.36,91.77-53,91.77,53-91.77,53ZM719.5,540l91.77,53L719.5,646l-91.77-53Zm.67-.38,91.77-53,91.76,53-91.76,53Zm92.44-53.37,91.76-53,91.77,53-91.77,53ZM904.37,540l91.77,53-91.76,53-91.77-53Zm.67-.38,91.77-53,91.77,53-91.77,53Zm91.77-53.76-91.77-53,91.77-53,91.77,53ZM904.37,432.5l-91.77-53,91.77-53,91.77,53Zm-.67.39-91.76,53-91.77-53,91.76-53Zm-184.2-.39-91.77-53,91.76-53,91.77,53Zm-.67.39-91.77,53-91.77-53,91.77-53Zm-184.21-.39-91.77-53,91.77-53,91.77,53Zm-.67.39-91.76,53-91.77-53,91.77-53Zm0,106.73-91.77,53-91.77-53,91.77-53Zm0,106.74-91.77,53-91.77-53,91.77-53Zm.67.39,91.77,53-91.77,53-91.77-53Zm.67-.39,91.76-53,91.77,53-91.76,53Zm184.2.39,91.77,53-91.76,53-91.77-53Zm.67-.39,91.77-53,91.77,53-91.77,53Zm184.21.39,91.77,53-91.77,53-91.77-53Zm.67-.39,91.76-53,91.77,53-91.76,53Zm184.2.39,91.77,53-91.77,53-91.77-53ZM997.48,593l91.77-53L1181,593l-91.77,53Zm91.77-53.76-91.77-53,91.77-53,91.76,53ZM997.48,379.52l91.76-53,91.77,53-91.76,53Zm0-106.74,91.77-53,91.77,53-91.77,53Zm91.1,53.37-91.76,53-91.77-53,91.76-53Zm-184.2-.38-91.77-53,91.77-53,91.76,53Zm-.67.38-91.77,53-91.77-53,91.77-53Zm-184.21-.39-91.76-53,91.76-53,91.77,53Zm-.66.39-91.77,53-91.77-53,91.77-53Zm-184.21-.39-91.77-53,91.77-53,91.77,53Zm-.67.39-91.76,53-91.77-53,91.76-53Zm-184.2-.39-91.77-53,91.76-53,91.77,53Zm91.77,53.76-91.77,53-91.77-53,91.77-53Zm0,106.73-91.77,53-91.77-53,91.77-53Zm0,106.74-91.77,53L258,593l91.76-53Zm0,106.74-91.76,53-91.77-53,91.76-53Zm0,106.74-91.77,53-91.77-53,91.77-53Zm-91.1-53.37,91.76-53,91.77,53-91.76,53Zm184.2.38,91.77,53-91.77,53-91.77-53Zm.67-.38,91.77-53,91.77,53-91.77,53Zm184.21.39,91.76,53-91.76,53-91.77-53Zm.66-.39,91.77-53,91.77,53-91.77,53Zm184.21.39,91.77,53-91.77,53-91.77-53Zm.67-.39,91.77-53,91.76,53-91.76,53Zm184.2.39,91.77,53-91.76,53-91.77-53Zm.67-.39,91.77-53,91.77,53-91.77,53Zm91.77-53.75-91.77-53,91.77-53,91.77,53Zm-91.77-159.72,91.76-53,91.77,53-91.76,53Zm0-106.74,91.77-53,91.77,53-91.77,53Zm0-106.74,91.77-53,91.77,53-91.77,53Zm0-106.73,91.77-53,91.76,53-91.76,53Zm-.67-.39-91.77-53,91.77-53,91.77,53Zm-.67.39-91.77,53-91.76-53,91.76-53ZM904.37,219l-91.77-53,91.76-53,91.77,53Zm-.67.39-91.77,53-91.77-53,91.77-53ZM719.49,219l-91.77-53,91.77-53,91.77,53Zm-.67.38-91.76,53-91.77-53,91.76-53ZM534.62,219l-91.77-53,91.76-53,91.77,53Zm-.67.38-91.77,53-91.77-53,91.77-53ZM349.74,219,258,166l91.77-53,91.77,53Zm-.67.39-91.76,53-91.77-53,91.77-53Zm0,106.74-91.77,53-91.77-53,91.77-53Zm0,106.74-91.77,53-91.77-53,91.77-53Zm0,106.73-91.76,53-91.77-53,91.76-53Zm0,106.74-91.77,53-91.77-53,91.77-53Zm0,106.74-91.77,53-91.77-53,91.77-53Zm0,106.73-91.77,53-91.76-53,91.76-53Zm.67.39,91.77,53-91.77,53L258,913.2Zm.67-.39,91.77-53,91.76,53-91.76,53Zm184.2.39,91.77,53-91.76,53-91.77-53Zm.67-.39,91.77-53,91.77,53-91.77,53Zm184.21.39,91.77,53-91.77,53-91.77-53Zm.67-.38,91.76-53,91.77,53-91.76,53Zm184.2.38,91.77,53-91.77,53-91.76-53Zm.67-.38,91.77-53,91.77,53-91.77,53Zm184.21.39,91.77,53-91.77,53-91.77-53Zm.67-.39,91.76-53,91.77,53-91.77,53Zm276-53.37-91.77,53-91.77-53,91.77-53Zm0-106.73-91.76,53-91.77-53,91.76-53Zm0-106.74-91.77,53-91.76-53,91.76-53Zm0-106.74-91.77,53-91.77-53,91.77-53Zm0-106.74-91.77,53-91.77-53,91.77-53Zm0-106.73-91.76,53-91.77-53,91.76-53Zm0-106.74-91.77,53-91.77-53,91.77-53ZM1274.11,6.33l91.77,53-91.77,53-91.77-53Zm-.67,106.35-91.76,53-91.77-53,91.76-53ZM1089.23,6.33l91.77,53-91.76,53-91.77-53Zm-.66,106.35-91.77,53-91.77-53,91.77-53ZM904.36,6.33l91.77,53-91.77,53-91.77-53Zm-.67,106.35-91.76,53-91.77-53,91.76-53ZM719.49,6.33l91.77,53-91.77,53-91.77-53Zm-.67,106.35-91.77,53-91.77-53,91.77-53ZM534.61,6.32l91.77,53-91.77,53-91.76-53ZM442.18,59.69l91.77,53-91.77,53-91.77-53ZM349.74,6.32l91.77,53-91.77,53L258,59.3Zm-.67,106.35-91.76,53-91.77-53,91.76-53ZM73.1,59.3l91.76-53,91.77,53-91.76,53ZM73.1,166l91.77-53,91.77,53-91.77,53Zm0,106.74,91.77-53,91.77,53-91.77,53Zm0,106.73,91.76-53,91.77,53-91.76,53Zm0,106.74,91.77-53,91.76,53-91.76,53Zm0,106.74,91.77-53,91.77,53-91.77,53Zm0,106.74,91.77-53,91.77,53-91.77,53Zm0,106.73,91.76-53,91.77,53-91.76,53Zm0,106.74,91.77-53,91.76,53-91.76,53Zm91.77,159.72-91.77-53,91.77-53,91.77,53Zm92.44-53.37-91.77-53,91.76-53,91.77,53Zm92.44,53.37-91.77-53,91.76-53,91.77,53Zm.66-106.35,91.77-53,91.77,53-91.77,53Zm184.21,106.35-91.77-53,91.77-53,91.77,53Zm92.43-53.37-91.76-53,91.76-53,91.77,53Zm92.44,53.37-91.77-53,91.77-53,91.77,53Zm.67-106.35,91.77-53,91.77,53-91.77,53Zm184.21,106.36-91.77-53,91.76-53,91.77,53Zm.66-106.36,91.77-53,91.77,53-91.77,53Zm184.21,106.36-91.77-53,91.77-53,91.77,53Zm92.44-53.37-91.77-53,91.76-53,91.77,53Zm92.44,53.37-91.77-53,91.76-53,91.77,53Z" transform="translate(0)"/><rect class="cls-2" width="1439" height="1079.25"/></svg>