<svg xmlns="http://www.w3.org/2000/svg" xmlns:xlink="http://www.w3.org/1999/xlink" viewBox="0 0 1300.57 1591.24"><defs><style>.cls-1{fill:#fff;}.cls-2{fill:#b3b3b3;}.cls-3{fill:url(#radial-gradient);}.cls-4{opacity:0.65;isolation:isolate;fill:url(#radial-gradient-2);}.cls-5{fill:#a27351;}.cls-6{fill:#d1a381;}.cls-7{fill:#f0f0f0;}.cls-8{fill:#aaa;}.cls-9{fill:#dcdcdc;}.cls-10{fill:#ccc;}.cls-11{fill:#9d9d9d;}.cls-12{fill:#d2d2d2;}</style><radialGradient id="radial-gradient" cx="730.21" cy="-807.71" r="635.95" gradientTransform="matrix(1, 0, 0, -1, 0, 345.86)" gradientUnits="userSpaceOnUse"><stop offset="0" stop-color="#fff" stop-opacity="0"/><stop offset="0.2" stop-color="#fff" stop-opacity="0.01"/><stop offset="0.34" stop-color="#fff" stop-opacity="0.05"/><stop offset="0.45" stop-color="#fff" stop-opacity="0.1"/><stop offset="0.56" stop-color="#fff" stop-opacity="0.19"/><stop offset="0.65" stop-color="#fff" stop-opacity="0.3"/><stop offset="0.74" stop-color="#fff" stop-opacity="0.43"/><stop offset="0.83" stop-color="#fff" stop-opacity="0.59"/><stop offset="0.91" stop-color="#fff" stop-opacity="0.77"/><stop offset="0.99" stop-color="#fff" stop-opacity="0.97"/><stop offset="1" stop-color="#fff"/></radialGradient><radialGradient id="radial-gradient-2" cx="-533.87" cy="466.86" r="0.93" gradientTransform="matrix(374.67, 0, 0, -233.36, 200756.28, 110082.42)" gradientUnits="userSpaceOnUse"><stop offset="0"/><stop offset="1" stop-color="#545454" stop-opacity="0"/></radialGradient></defs><title>illustration</title><g id="Layer_2" data-name="Layer 2"><rect class="cls-1" width="1300.57" height="1591.24"/></g><g id="Layer_1" data-name="Layer 1"><path class="cls-2" d="M1449.71,1592.47v-.78l-72.43,41.82-91.77-53,91.77-53,72.43,41.86v-.78L1378,1527.16l71.76-41.43V1485l-72.43,41.81-91.77-53,91.77-53,72.43,41.87v-.77L1378,1420.42l71.76-41.47v-.77L1377.28,1420l-91.77-53,91.76-53,72.44,41.89v-.77l-71.77-41.43,71.77-41.44v-.77l-72.44,41.82-91.77-53,91.77-53,72.44,41.86v-.77L1377.94,1207l71.77-41.44v-.77l-72.44,41.82-91.77-53,91.77-53,72.44,41.86v-.77l-71.77-41.44,71.77-41.44V1058l-72.44,41.83-91.77-53,91.77-53,72.44,41.86V1035l-71.78-41.44L1449.71,952v-.78l-72.44,41.83-91.77-53,91.76-53L1449.71,929v-.77l-71.78-41.44,71.78-41.44v-.78l-72.45,41.83-91.77-53,91.77-53,72.45,41.87v-.78L1377.93,780l71.78-41.44v-.77l-72.45,41.82-91.77-53,91.77-53,72.45,41.87v-.77l-71.78-41.45,71.78-41.44v-.77l-72.45,41.83-91.77-53,10.29-5.93h-1.33l-9.63,5.56-9.63-5.56h-1.34l10.3,5.94-91.77,53-91.77-53,10.3-5.94h-1.34l-9.63,5.56-9.62-5.56H1089l10.3,5.94-91.77,53-91.8-53L926,614h-1.32l-9.62,5.55L905.45,614h-1.34l10.29,5.94-91.77,53-91.76-53L741.15,614h-1.34l-9.61,5.55L720.58,614h-1.34l10.29,5.94-91.77,53-91.77-53L556.28,614h-1.34l-9.62,5.55L535.71,614h-1.34l10.28,5.94-91.76,53-91.77-53L371.4,614h-1.34l-9.61,5.55L350.84,614H349.5l10.28,5.94-91.77,53-91.77-53L186.52,614h-1.34l-9.61,5.55L166,614h-1.33l10.28,5.93-91.77,53L10.71,631.05v.77l71.76,41.43L10.71,714.68v.78l72.43-41.82,91.77,53-91.77,53L10.71,737.79v.77L82.47,780,10.71,821.42v.77l72.43-41.81,91.77,53-91.77,53L10.71,844.52v.77l71.76,41.44L10.71,928.16V929l72.43-41.82,91.77,53-91.76,53L10.71,951.26V952l71.77,41.43L10.71,1035v.77l72.44-41.87,91.77,53-91.77,53L10.71,1058v.77l71.77,41.44-71.77,41.48v.77l72.44-41.82,91.77,53-91.77,53-72.44-41.86v.77L82.48,1207l-71.77,41.43v.77l72.44-41.83,91.77,53-91.77,53-72.44-41.86v.78l71.78,41.44-71.78,41.44v.77l72.44-41.83,91.77,53-91.76,53L10.71,1378.2v.75l71.78,41.44-71.78,41.46v.78l72.45-41.83,91.77,53-91.77,53L10.71,1485v.78l71.78,41.42-71.78,41.44v.78l72.45-41.83,91.77,53-91.77,53-72.45-41.87v.77l71.78,41.45-71.78,41.44v.77l72.45-41.83,91.77,53-10.29,5.94H166l9.62-5.56,9.63,5.56h1.34l-10.3-5.94,91.77-53,91.77,53-10.3,5.94h1.34l9.63-5.56,9.62,5.56h1.34l-10.29-5.94,91.76-53,91.77,53-10.29,5.94h1.32l9.62-5.55,9.62,5.55h1.34L546,1687.27l91.76-53,91.77,53-10.28,5.94h1.34l9.61-5.55,9.62,5.55h1.34l-10.29-5.94,91.77-53,91.77,53-10.29,5.94h1.34l9.62-5.55,9.61,5.55H926l-10.28-5.94,91.76-53,91.77,53-10.28,5.94h1.34l9.61-5.55,9.61,5.55h1.34l-10.28-5.94,91.77-53,91.77,53-10.28,5.93h1.34l9.61-5.55,9.61,5.55h1.33l-10.27-5.93,91.76-53,72.43,41.82v-.77L1378,1634Zm-73.1-65.31-91.77,53-91.77-53,91.77-53ZM637.11,1207l-91.77,53-91.77-53,91.77-53ZM453.57,1100.2l91.76-53,91.77,53-91.76,53ZM546,1153.57l91.76-53,91.77,53-91.77,53Zm92.43-53.36,91.77-53,91.77,53-91.77,53ZM730.21,1154,822,1207l-91.77,53-91.77-53Zm.67-.38,91.77-53,91.76,53-91.76,53Zm92.44-53.37,91.76-53,91.77,53-91.77,53ZM915.08,1154l91.77,53-91.76,53-91.77-53Zm.67-.38,91.77-53,91.77,53-91.77,53Zm91.77-53.76-91.77-53,91.77-53,91.77,53Zm-92.44-53.36-91.77-53,91.77-53,91.77,53Zm-.67.39-91.76,53-91.77-53,91.76-53Zm-184.2-.39-91.77-53,91.76-53,91.77,53Zm-.67.39-91.77,53-91.77-53,91.77-53Zm-184.21-.39-91.77-53,91.77-53,91.77,53Zm-.67.39-91.76,53-91.77-53,91.77-53Zm0,106.73-91.77,53-91.77-53,91.77-53Zm0,106.74-91.77,53-91.77-53,91.77-53Zm.67.39,91.77,53-91.77,53-91.77-53Zm.67-.39,91.76-53,91.77,53-91.76,53Zm184.2.39,91.77,53-91.76,53-91.77-53Zm.67-.39,91.77-53,91.77,53-91.77,53Zm184.21.39,91.77,53-91.77,53-91.77-53Zm.67-.39,91.76-53,91.77,53-91.76,53Zm184.2.39,91.77,53-91.77,53-91.77-53ZM1008.19,1207l91.77-53,91.75,53-91.77,53Zm91.77-53.76-91.77-53,91.77-53,91.76,53Zm-91.77-159.72,91.76-53,91.77,53-91.76,53Zm0-106.74,91.77-53,91.77,53-91.77,53Zm91.1,53.37-91.76,53-91.77-53,91.76-53Zm-184.2-.38-91.77-53,91.77-53,91.76,53Zm-.67.38-91.77,53-91.77-53,91.77-53Zm-184.21-.39-91.76-53,91.76-53,91.77,53Zm-.66.39-91.77,53L546,940.1l91.77-53Zm-184.21-.39-91.77-53,91.77-53,91.77,53Zm-.67.39-91.76,53-91.77-53,91.76-53Zm-184.2-.39-91.77-53,91.76-53,91.77,53Zm91.77,53.76-91.77,53-91.77-53,91.77-53Zm0,106.73-91.77,53-91.77-53,91.77-53Zm0,106.74-91.77,53-91.76-53,91.76-53Zm0,106.74-91.76,53-91.77-53,91.76-53Zm0,106.74-91.77,53-91.77-53,91.77-53Zm-91.1-53.37,91.76-53,91.77,53-91.76,53Zm184.2.38,91.77,53-91.77,53-91.77-53Zm.67-.38,91.77-53,91.77,53-91.77,53Zm184.21.39,91.76,53-91.76,53-91.77-53Zm.66-.39,91.77-53,91.77,53-91.77,53Zm184.21.39,91.77,53-91.77,53-91.77-53Zm.67-.39,91.77-53,91.76,53-91.76,53Zm184.2.39,91.77,53-91.76,53-91.77-53Zm.67-.39,91.77-53,91.77,53-91.77,53Zm91.77-53.75-91.77-53,91.77-53,91.77,53Zm-91.77-159.72,91.76-53,91.77,53-91.76,53Zm0-106.74,91.77-53,91.77,53-91.77,53Zm0-106.74,91.77-53,91.77,53-91.77,53Zm0-106.73,91.77-53,91.76,53-91.76,53ZM1100,833l-91.77-53L1100,727l91.77,53Zm-.67.39-91.77,53-91.76-53,91.76-53ZM915.08,833l-91.77-53,91.76-53,91.77,53Zm-.67.39-91.77,53-91.77-53,91.77-53ZM730.2,833l-91.77-53,91.77-53L822,780Zm-.67.38-91.76,53-91.77-53,91.76-53ZM545.33,833l-91.77-53,91.76-53,91.77,53Zm-.67.38-91.77,53-91.77-53,91.77-53ZM360.45,833l-91.74-53,91.77-53,91.77,53Zm-.67.39-91.76,53-91.77-53,91.77-53Zm0,106.74-91.77,53-91.77-53,91.77-53Zm0,106.74-91.77,53-91.77-53,91.77-53Zm0,106.73-91.76,53-91.77-53,91.76-53Zm0,106.74-91.77,53-91.77-53,91.77-53Zm0,106.74L268,1420l-91.77-53L268,1314Zm0,106.73-91.77,53-91.76-53,91.76-53Zm.67.39,91.77,53-91.77,53-91.74-53Zm.67-.39,91.77-53,91.76,53-91.76,53Zm184.2.39,91.77,53-91.76,53-91.77-53Zm.67-.39,91.77-53,91.77,53-91.77,53Zm184.21.39,91.77,53-91.77,53-91.77-53Zm.67-.38,91.76-53,91.77,53-91.76,53Zm184.2.38,91.77,53-91.77,53-91.76-53Zm.67-.38,91.77-53,91.77,53-91.77,53Zm184.21.39,91.77,53-91.77,53-91.77-53Zm.67-.39,91.76-53,91.77,53-91.77,53Zm276-53.37-91.77,53-91.77-53,91.77-53Zm0-106.73-91.76,53-91.77-53,91.76-53Zm0-106.74-91.77,53-91.76-53,91.76-53Zm0-106.74-91.77,53-91.77-53,91.77-53Zm0-106.74-91.77,53-91.77-53,91.77-53Zm0-106.73-91.76,53-91.77-53,91.76-53Zm0-106.74-91.77,53-91.77-53,91.77-53Zm-91.8-159.7,91.77,53-91.77,53-91.77-53Zm-.67,106.35-91.76,53-91.77-53,91.76-53ZM1099.94,620.28l91.77,53-91.76,53-91.77-53Zm-.66,106.35-91.77,53-91.77-53,91.77-53ZM915.07,620.28l91.77,53-91.77,53-91.77-53Zm-.67,106.35-91.76,53-91.77-53,91.76-53ZM730.2,620.28l91.77,53-91.77,53-91.77-53Zm-.67,106.35-91.77,53-91.77-53,91.77-53ZM545.32,620.27l91.77,53-91.77,53-91.76-53Zm-92.43,53.37,91.77,53-91.77,53-91.77-53Zm-92.44-53.37,91.77,53-91.77,53-91.74-53Zm-.67,106.35-91.76,53-91.77-53,91.76-53Zm-276-53.37,91.76-53,91.77,53-91.76,53Zm0,106.7,91.77-53,91.77,53-91.77,53Zm0,106.74,91.77-53,91.77,53-91.77,53Zm0,106.73,91.76-53,91.77,53-91.76,53Zm0,106.74,91.77-53,91.76,53-91.76,53Zm0,106.74,91.77-53,91.77,53-91.77,53Zm0,106.74,91.77-53,91.77,53-91.77,53Zm0,106.73,91.76-53,91.77,53-91.76,53Zm0,106.74,91.77-53,91.76,53-91.76,53Zm91.77,159.72-91.77-53,91.77-53,91.77,53ZM268,1633.46l-91.77-53,91.76-53,91.77,53Zm92.44,53.37-91.77-53,91.76-53,91.77,53Zm.66-106.35,91.77-53,91.77,53-91.77,53Zm184.21,106.35-91.77-53,91.77-53,91.77,53Zm92.43-53.37-91.76-53,91.76-53,91.77,53Zm92.44,53.37-91.77-53,91.77-53,91.77,53Zm.67-106.35,91.77-53,91.77,53-91.77,53Zm184.21,106.36-91.77-53,91.76-53,91.77,53Zm.66-106.36,91.77-53,91.77,53-91.77,53ZM1100,1686.84l-91.77-53,91.77-53,91.77,53Zm92.44-53.37-91.77-53,91.76-53,91.77,53Zm92.44,53.37-91.77-53,91.76-53,91.77,53Z"/><rect class="cls-3" x="10.71" y="613.95" width="1439" height="1079.25"/><g id="crane"><ellipse id="shadow_coin" data-name="shadow coin" class="cls-4" cx="732.38" cy="1134" rx="348.53" ry="217.08"/><g id="coin"><path id="Path_436" data-name="Path 436" class="cls-5" d="M996.37,1108.06v50h-.14c0,27.57-12.92,55.27-38.64,79.42a181.75,181.75,0,0,1-30.21,23.34c-2.64,1.71-5.54,3.43-8.44,5.14a268,268,0,0,1-31.4,15.45,274.23,274.23,0,0,1-30.21,10.94,352.3,352.3,0,0,1-40,10.15c-9.88,2-20,3.57-30.2,4.76-13.19,1.58-26.51,2.63-39.84,3-10,.39-20.05.39-30.2,0-13.33-.4-26.65-1.45-39.85-3-10.16-1.19-20.31-2.77-30.2-4.76a352.3,352.3,0,0,1-40-10.15,277.11,277.11,0,0,1-30.21-10.95,267.83,267.83,0,0,1-31.39-15.45c-2.9-1.71-5.67-3.43-8.45-5.14a186.66,186.66,0,0,1-30.2-23.34c-25.86-24.15-38.79-51.85-38.79-79.42v-50Z"/><g id="Group_47" data-name="Group 47"><path id="Path_444" data-name="Path 444" class="cls-6" d="M919,1215.89c-102.68,59.67-268.6,60-373.5,0-103.39-59.12-103.14-156.09,0-215.64s270.35-59.55,373.49,0S1021.93,1156.06,919,1215.89Z"/></g><g id="Group_48" data-name="Group 48"><ellipse id="Ellipse_1" data-name="Ellipse 1" class="cls-5" cx="732.2" cy="1108.08" rx="222.35" ry="128.37"/></g><g id="Group_49" data-name="Group 49"><path id="Path_445" data-name="Path 445" class="cls-6" d="M876.35,1191.31c-79.6,46-208.68,46-288.29,0s-79.62-120.49,0-166.45,208.69-46,288.3,0S956,1145.35,876.35,1191.31Z"/></g></g><g id="crane-2"><path id="Path_127" data-name="Path 127" class="cls-7" d="M840.24,1066.92v54.27l-109.62,63.3v-54.26Z"/><path id="Path_128" data-name="Path 128" class="cls-8" d="M621,1066.92v54.25l109.65,63.31v-54.25Z"/><path id="Path_129" data-name="Path 129" class="cls-9" d="M730.36,1003.75l109.89,63.17-109.63,63.31L621,1066.92Z"/><g id="Group_18" data-name="Group 18"><path id="Path_130" data-name="Path 130" class="cls-7" d="M782.2,1064.21v-35.89l-10.36,6v35.88Z"/><path id="Path_131" data-name="Path 131" class="cls-7" d="M740.76,1088.14v-35.89l-10.36,6v35.88Z"/><path id="Path_132" data-name="Path 132" class="cls-8" d="M761.47,1064.21v-35.89l10.36,6v35.88Z"/><path id="Path_133" data-name="Path 133" class="cls-8" d="M720,1088.14v-35.89l10.36,6v35.88Z"/><path id="Path_134" data-name="Path 134" class="cls-7" d="M699.33,1064.21v-35.89l-10.36,6v35.88Z"/><path id="Path_135" data-name="Path 135" class="cls-8" d="M678.61,1064.21v-35.89l10.36,6v35.88Z"/><path id="Path_136" data-name="Path 136" class="cls-7" d="M771.84,1046.27v-12l-31.09,17.94v12Z"/><path id="Path_137" data-name="Path 137" class="cls-10" d="M761.48,1028.33l10.36,6-31.07,17.94-10.38-6Z"/><path id="Path_138" data-name="Path 138" class="cls-8" d="M689,1046.27v-12L720,1052.25v12Z"/><path id="Path_139" data-name="Path 139" class="cls-10" d="M699.33,1028.33l-10.36,6L720,1052.25l10.36-6Z"/></g><g id="Group_19" data-name="Group 19"><path id="Path_140" data-name="Path 140" class="cls-10" d="M761.48,980.49l10.36,6-31.07,17.95-10.38-6Z"/><path id="Path_141" data-name="Path 141" class="cls-7" d="M782.2,1028.35V980.49l-10.36,6v47.86Z"/><path id="Path_142" data-name="Path 142" class="cls-7" d="M740.76,1052.27v-47.85l-10.36,6v47.85Z"/><path id="Path_143" data-name="Path 143" class="cls-8" d="M761.47,1028.34v-23.92l10.36-6v35.89Z"/><path id="Path_144" data-name="Path 144" class="cls-8" d="M720,1052.27v-47.85l10.36,6v47.85Z"/><path id="Path_145" data-name="Path 145" class="cls-7" d="M699.33,1028.34v-23.92l-10.36-6v35.89Z"/><path id="Path_146" data-name="Path 146" class="cls-8" d="M678.61,1028.35V980.49l10.36,6v47.86Z"/><path id="Path_147" data-name="Path 147" class="cls-7" d="M771.84,998.44v-12l-31.09,17.94v12Z"/><path id="Path_148" data-name="Path 148" class="cls-8" d="M689,998.44v-12L720,1004.42v12Z"/><path id="Path_149" data-name="Path 149" class="cls-10" d="M699.33,980.49l-10.36,6L720,1004.42l10.36-6Z"/></g><g id="Group_20" data-name="Group 20"><path id="Path_150" data-name="Path 150" class="cls-10" d="M761.48,932.71l10.36,6-31.07,17.95-10.38-6Z"/><path id="Path_151" data-name="Path 151" class="cls-7" d="M782.2,980.56V932.71l-10.36,6v47.86Z"/><path id="Path_152" data-name="Path 152" class="cls-7" d="M740.76,1004.49V956.64l-10.36,6v47.85Z"/><path id="Path_153" data-name="Path 153" class="cls-8" d="M761.47,980.56V956.64l10.36-6v35.89Z"/><path id="Path_154" data-name="Path 154" class="cls-8" d="M720,1004.49V956.64l10.36,6v47.85Z"/><path id="Path_155" data-name="Path 155" class="cls-7" d="M699.33,980.56V956.64l-10.36-6v35.89Z"/><path id="Path_156" data-name="Path 156" class="cls-8" d="M678.61,980.56V932.71l10.36,6v47.86Z"/><path id="Path_157" data-name="Path 157" class="cls-7" d="M771.84,950.66v-12l-31.09,17.95v12Z"/><path id="Path_158" data-name="Path 158" class="cls-8" d="M689,950.66v-12L720,956.64v12Z"/><path id="Path_159" data-name="Path 159" class="cls-10" d="M699.33,932.71l-10.36,6L720,956.64l10.36-6Z"/></g><g id="Group_21" data-name="Group 21"><path id="Path_160" data-name="Path 160" class="cls-10" d="M761.48,884.83l10.36,6-31.07,17.94-10.38-6Z"/><path id="Path_161" data-name="Path 161" class="cls-7" d="M782.2,932.69V884.84l-10.36,6v47.85Z"/><path id="Path_162" data-name="Path 162" class="cls-7" d="M740.76,956.61V908.76l-10.36,6v47.85Z"/><path id="Path_163" data-name="Path 163" class="cls-8" d="M761.47,932.69V908.76l10.36-6v35.89Z"/><path id="Path_164" data-name="Path 164" class="cls-8" d="M720,956.61V908.76l10.36,6v47.85Z"/><path id="Path_165" data-name="Path 165" class="cls-7" d="M699.33,932.69V908.76l-10.36-6v35.89Z"/><path id="Path_166" data-name="Path 166" class="cls-8" d="M678.61,932.69V884.84l10.36,6v47.85Z"/><path id="Path_167" data-name="Path 167" class="cls-7" d="M771.84,902.78v-12l-31.09,17.94v12Z"/><path id="Path_168" data-name="Path 168" class="cls-8" d="M689,902.78v-12L720,908.76v12Z"/><path id="Path_169" data-name="Path 169" class="cls-10" d="M699.33,884.83l-10.36,6L720,908.76l10.36-6Z"/></g><path id="Path_170" data-name="Path 170" class="cls-10" d="M761.48,836.83l10.36,6-31.07,17.94-10.37-6Z"/><path id="Path_171" data-name="Path 171" class="cls-7" d="M782.2,884.68V836.83l-10.36,6v47.85Z"/><path id="Path_172" data-name="Path 172" class="cls-7" d="M740.76,908.6V860.75l-10.36,6v47.85Z"/><path id="Path_173" data-name="Path 173" class="cls-8" d="M761.47,884.68V860.76l10.36-6v35.89Z"/><path id="Path_174" data-name="Path 174" class="cls-8" d="M720,908.6V860.75l10.36,6v47.85Z"/><path id="Path_175" data-name="Path 175" class="cls-7" d="M699.33,884.68V860.76l-10.36-6v35.89Z"/><path id="Path_176" data-name="Path 176" class="cls-8" d="M678.61,884.68V836.83l10.36,6v47.85Z"/><path id="Path_177" data-name="Path 177" class="cls-7" d="M771.84,854.77v-12l-31.08,17.94v12Z"/><path id="Path_178" data-name="Path 178" class="cls-8" d="M689,854.77v-12L720,860.75v12Z"/><path id="Path_179" data-name="Path 179" class="cls-10" d="M699.33,836.83l-10.36,6L720,860.75l10.36-6Z"/><path id="Path_180" data-name="Path 180" class="cls-10" d="M761.48,789l10.36,6-31.07,17.95-10.37-6Z"/><path id="Path_181" data-name="Path 181" class="cls-7" d="M782.2,836.83V789l-10.36,6v47.85Z"/><path id="Path_182" data-name="Path 182" class="cls-7" d="M740.76,860.76V812.9l-10.36,6v47.85Z"/><path id="Path_183" data-name="Path 183" class="cls-8" d="M761.47,836.83V812.91l10.36-6v35.88Z"/><path id="Path_184" data-name="Path 184" class="cls-8" d="M720,860.76V812.9l10.36,6v47.85Z"/><path id="Path_185" data-name="Path 185" class="cls-7" d="M699.33,836.83V812.91l-10.36-6v35.88Z"/><path id="Path_186" data-name="Path 186" class="cls-8" d="M678.61,836.83V789L689,795v47.85Z"/><path id="Path_187" data-name="Path 187" class="cls-7" d="M771.84,806.92V795L740.76,812.9v12Z"/><path id="Path_188" data-name="Path 188" class="cls-8" d="M689,806.92V795L720,812.9v12Z"/><path id="Path_189" data-name="Path 189" class="cls-10" d="M699.33,789,689,795,720,812.91l10.36-6Z"/><path id="Path_190" data-name="Path 190" class="cls-10" d="M761.48,741.13l10.36,6-31.07,17.94-10.37-6Z"/><path id="Path_191" data-name="Path 191" class="cls-7" d="M782.2,789V741.13l-10.36,6V795Z"/><path id="Path_192" data-name="Path 192" class="cls-7" d="M740.76,812.9V765.05l-10.36,6v47.85Z"/><path id="Path_193" data-name="Path 193" class="cls-8" d="M761.47,789V765.05l10.36-6V795Z"/><path id="Path_194" data-name="Path 194" class="cls-8" d="M720,812.9V765.05l10.36,6v47.85Z"/><path id="Path_195" data-name="Path 195" class="cls-7" d="M699.33,789V765.05l-10.36-6V795Z"/><path id="Path_196" data-name="Path 196" class="cls-8" d="M678.61,789V741.13l10.36,6V795Z"/><path id="Path_197" data-name="Path 197" class="cls-7" d="M771.84,759.07v-12l-31.08,17.95v12Z"/><path id="Path_198" data-name="Path 198" class="cls-8" d="M689,759.07v-12L720,765.05v12Z"/><path id="Path_199" data-name="Path 199" class="cls-10" d="M699.33,741.13l-10.36,6L720,765.05l10.36-6Z"/><path id="Path_200" data-name="Path 200" class="cls-10" d="M761.48,693.25l10.36,6-31.07,17.95-10.37-6Z"/><path id="Path_201" data-name="Path 201" class="cls-7" d="M782.2,741.11V693.26l-10.36,6v47.85Z"/><path id="Path_202" data-name="Path 202" class="cls-7" d="M740.76,765V717.17l-10.36,6V771Z"/><path id="Path_203" data-name="Path 203" class="cls-8" d="M761.47,741.1V717.18l10.36-6v35.89Z"/><path id="Path_204" data-name="Path 204" class="cls-8" d="M720,765V717.17l10.36,6V771Z"/><path id="Path_205" data-name="Path 205" class="cls-7" d="M699.33,741.1V717.18l-10.36-6v35.89Z"/><path id="Path_206" data-name="Path 206" class="cls-8" d="M678.61,741.11V693.26l10.36,6v47.85Z"/><path id="Path_207" data-name="Path 207" class="cls-7" d="M771.84,711.2v-12l-31.08,17.95v12Z"/><path id="Path_208" data-name="Path 208" class="cls-8" d="M689,711.2v-12L720,717.18v12Z"/><path id="Path_209" data-name="Path 209" class="cls-10" d="M699.33,693.25l-10.36,6L720,717.18l10.36-6Z"/><path id="Path_210" data-name="Path 210" class="cls-10" d="M761.48,645.4l10.36,6-31.07,17.94-10.37-6Z"/><path id="Path_211" data-name="Path 211" class="cls-7" d="M782.2,693.25V645.4l-10.36,6v47.85Z"/><path id="Path_212" data-name="Path 212" class="cls-7" d="M740.76,717.17V669.32l-10.36,6v47.85Z"/><path id="Path_213" data-name="Path 213" class="cls-8" d="M761.47,693.25V669.32l10.36-6v35.89Z"/><path id="Path_214" data-name="Path 214" class="cls-8" d="M720,717.17V669.32l10.36,6v47.85Z"/><path id="Path_215" data-name="Path 215" class="cls-7" d="M699.33,693.25V669.32l-10.36-6v35.89Z"/><path id="Path_216" data-name="Path 216" class="cls-8" d="M678.61,693.25V645.4l10.36,6v47.85Z"/><path id="Path_217" data-name="Path 217" class="cls-7" d="M771.84,663.34v-12l-31.08,17.94v12Z"/><path id="Path_218" data-name="Path 218" class="cls-8" d="M689,663.34v-12L720,669.32v12Z"/><path id="Path_219" data-name="Path 219" class="cls-10" d="M699.33,645.4l-10.36,6L720,669.32l10.36-6Z"/><path id="Path_220" data-name="Path 220" class="cls-10" d="M761.48,597.45l10.36,6-31.07,17.94-10.37-6Z"/><path id="Path_221" data-name="Path 221" class="cls-7" d="M782.2,645.31V597.45l-10.36,6v47.85Z"/><path id="Path_222" data-name="Path 222" class="cls-7" d="M740.76,669.23V621.38l-10.36,6v47.85Z"/><path id="Path_223" data-name="Path 223" class="cls-8" d="M761.47,645.31V621.38l10.36-6v35.89Z"/><path id="Path_224" data-name="Path 224" class="cls-8" d="M720,669.23V621.38l10.36,6v47.85Z"/><path id="Path_225" data-name="Path 225" class="cls-7" d="M699.33,645.31V621.38l-10.36-6v35.89Z"/><path id="Path_226" data-name="Path 226" class="cls-8" d="M678.61,645.31V597.45l10.36,6v47.85Z"/><path id="Path_227" data-name="Path 227" class="cls-7" d="M771.84,615.4v-12l-31.08,17.94v12Z"/><path id="Path_228" data-name="Path 228" class="cls-8" d="M689,615.4v-12L720,621.38v12Z"/><path id="Path_229" data-name="Path 229" class="cls-10" d="M699.33,597.45l-10.36,6L720,621.38l10.36-6Z"/><path id="Path_230" data-name="Path 230" class="cls-7" d="M782.2,597.54V549.69l-10.36,6v47.85Z"/><path id="Path_231" data-name="Path 231" class="cls-7" d="M740.76,621.47V573.62l-10.36,6v47.85Z"/><path id="Path_232" data-name="Path 232" class="cls-8" d="M761.47,597.54V573.62l10.36-6v35.89Z"/><path id="Path_233" data-name="Path 233" class="cls-8" d="M720,621.47V573.62l10.36,6v47.85Z"/><path id="Path_234" data-name="Path 234" class="cls-7" d="M699.33,597.54V573.62l-10.36-6v35.89Z"/><path id="Path_235" data-name="Path 235" class="cls-8" d="M678.61,597.54V549.69l10.36,6v47.85Z"/><path id="Path_236" data-name="Path 236" class="cls-7" d="M771.84,567.64v-12l-31.08,18v12Z"/><path id="Path_237" data-name="Path 237" class="cls-8" d="M689,567.64v-12l31.07,18v12Z"/><g id="Group_25" data-name="Group 25"><g id="Group_24" data-name="Group 24"><path id="Path_238" data-name="Path 238" class="cls-7" d="M906.51,310.38v59.78l-51.8,29.94V340.3Z"/><path id="Path_239" data-name="Path 239" class="cls-8" d="M802.92,303l-.19,67.09,52,30V340.3Z"/><path id="Path_240" data-name="Path 240" class="cls-11" d="M854.71,280.44l51.8,29.94-51.8,29.92-52-29.92Z"/><path id="Path_241" data-name="Path 241" class="cls-7" d="M906.51,298.32v-59.8l-10.36,6v59.81Z"/><path id="Path_242" data-name="Path 242" class="cls-8" d="M885.79,298.32v-59.8l10.36,6v59.81Z"/><path id="Path_243" data-name="Path 243" class="cls-7" d="M865.07,274.4V238.51l-10.36-6v47.85Z"/><path id="Path_244" data-name="Path 244" class="cls-8" d="M844.36,274.4V214.59l10.36,6v59.81Z"/><path id="Path_245" data-name="Path 245" class="cls-8" d="M854.71,232.53v-12l31.07,17.94v12Z"/><path id="Path_246" data-name="Path 246" class="cls-12" d="M854.71,208.6l-10.35,6,51.79,29.91,10.36-6Z"/><path id="Path_247" data-name="Path 247" class="cls-7" d="M896.15,304.3v-12l-41.43,23.93v12Z"/><path id="Path_248" data-name="Path 248" class="cls-10" d="M885.79,286.36l10.36,6-41.43,23.93-10.36-6Z"/><path id="Path_249" data-name="Path 249" class="cls-7" d="M896.15,256.45v-12l-41.43,23.93v12Z"/><path id="Path_250" data-name="Path 250" class="cls-7" d="M854.71,232.53v-12l-41.43,23.92v12Z"/><path id="Path_251" data-name="Path 251" class="cls-12" d="M885.79,238.52l10.36,6-41.43,23.93-10.36-6Z"/><path id="Path_252" data-name="Path 252" class="cls-12" d="M844.36,214.59l10.35,6-41.43,23.92-10.36-6Z"/><path id="Path_253" data-name="Path 253" class="cls-7" d="M865.07,322.25V262.43l-10.36,6v59.82Z"/><path id="Path_254" data-name="Path 254" class="cls-8" d="M844.36,322.25V262.43l10.36,6v59.82Z"/><path id="Path_255" data-name="Path 255" class="cls-7" d="M823.64,298.32V262.43l-10.36-6V304.3Z"/><path id="Path_256" data-name="Path 256" class="cls-8" d="M802.92,298.32v-59.8l10.36,6v59.81Z"/><path id="Path_257" data-name="Path 257" class="cls-8" d="M813.28,256.45v-12l31.07,17.94v12Z"/><path id="Path_258" data-name="Path 258" class="cls-12" d="M813.28,232.53l-10.36,6,51.8,29.91,10.36-6Z"/><path id="Path_259" data-name="Path 259" class="cls-7" d="M854.71,328.24v-12L813.28,340.2v12Z"/><path id="Path_260" data-name="Path 260" class="cls-10" d="M844.36,310.29l10.35,6-41.43,23.92-10.36-6Z"/><path id="Path_261" data-name="Path 261" class="cls-7" d="M854.71,280.38v-12l-41.43,23.92v12Z"/><path id="Path_262" data-name="Path 262" class="cls-7" d="M813.28,256.45v-12l-41.44,23.93v12Z"/><path id="Path_263" data-name="Path 263" class="cls-12" d="M844.36,262.43l10.35,6-41.43,23.93-10.36-6Z"/><path id="Path_264" data-name="Path 264" class="cls-12" d="M802.92,238.52l10.36,6-41.44,23.93-10.36-6Z"/><path id="Path_265" data-name="Path 265" class="cls-7" d="M823.64,346.24V286.42l-10.36,6v59.83Z"/><path id="Path_266" data-name="Path 266" class="cls-8" d="M802.92,346.24V286.42l10.36,6v59.83Z"/><path id="Path_267" data-name="Path 267" class="cls-7" d="M782.2,322.31V286.43l-10.36-6v47.85Z"/><path id="Path_268" data-name="Path 268" class="cls-8" d="M761.47,322.31V262.5l10.36,6v59.81Z"/><path id="Path_269" data-name="Path 269" class="cls-8" d="M771.84,280.44v-12l31.07,17.94v12Z"/><path id="Path_270" data-name="Path 270" class="cls-12" d="M771.84,256.52l-10.36,6,51.8,29.91,10.36-6Z"/><path id="Path_271" data-name="Path 271" class="cls-7" d="M813.28,352.22v-12l-41.44,23.92v12Z"/><path id="Path_272" data-name="Path 272" class="cls-10" d="M802.92,334.27l10.36,6-41.44,23.92-10.36-6Z"/><path id="Path_273" data-name="Path 273" class="cls-7" d="M813.28,304.37v-12l-41.44,23.92v12Z"/><path id="Path_274" data-name="Path 274" class="cls-7" d="M771.84,280.44v-12L730.4,292.4v12Z"/><path id="Path_275" data-name="Path 275" class="cls-12" d="M802.92,286.42l10.36,6-41.44,23.93-10.36-6Z"/><path id="Path_276" data-name="Path 276" class="cls-12" d="M761.48,262.5l10.36,6L730.4,292.4l-10.36-6Z"/><path id="Path_277" data-name="Path 277" class="cls-12" d="M740.66,286.39l-10.26,6,51.8,29.91-20.72-23.91Z"/><path id="Path_278" data-name="Path 278" class="cls-8" d="M730.4,292.43l-10.36,6,51.8,29.9,10.36-6Z"/><path id="Path_279" data-name="Path 279" class="cls-7" d="M720.05,310.35v-12L689,316.33v12Z"/><path id="Path_280" data-name="Path 280" class="cls-12" d="M720.05,286.42l10.35,6-31.07,18-10.35-6Z"/><path id="Path_281" data-name="Path 281" class="cls-7" d="M782.2,597.46V549.6l-10.36,6v47.85Z"/><path id="Path_282" data-name="Path 282" class="cls-8" d="M761.47,597.46V573.53l10.36-6v35.89Z"/><path id="Path_283" data-name="Path 283" class="cls-7" d="M699.33,597.46V573.53l-10.36-6v35.89Z"/><path id="Path_284" data-name="Path 284" class="cls-8" d="M678.61,597.46V549.6l10.36,6v47.85Z"/><path id="Path_285" data-name="Path 285" class="cls-7" d="M771.84,567.55v-12l-31.08,17.94v12Z"/><path id="Path_286" data-name="Path 286" class="cls-10" d="M761.48,549.6l10.36,6-31.07,17.94-10.37-6Z"/><path id="Path_287" data-name="Path 287" class="cls-8" d="M689,567.55v-12L720,573.53v12Z"/><path id="Path_288" data-name="Path 288" class="cls-10" d="M699.33,549.6l-10.36,6L720,573.52l10.36-6Z"/><path id="Path_289" data-name="Path 289" class="cls-7" d="M782.2,549.61V501.75l-10.36,6v47.86Z"/><path id="Path_290" data-name="Path 290" class="cls-7" d="M740.76,573.53V525.68l-10.36,6v47.85Z"/><path id="Path_291" data-name="Path 291" class="cls-8" d="M761.47,549.61V525.68l10.36-6v35.89Z"/><path id="Path_292" data-name="Path 292" class="cls-8" d="M720,573.53V525.68l10.36,6v47.85Z"/><path id="Path_293" data-name="Path 293" class="cls-7" d="M699.33,549.61V525.68l-10.36-6v35.89Z"/><path id="Path_294" data-name="Path 294" class="cls-8" d="M678.61,549.61V501.75l10.36,6v47.86Z"/><path id="Path_295" data-name="Path 295" class="cls-7" d="M771.84,519.7v-12l-31.08,17.95v12Z"/><path id="Path_296" data-name="Path 296" class="cls-10" d="M761.48,501.75l10.36,6-31.07,17.95-10.37-6Z"/><path id="Path_297" data-name="Path 297" class="cls-8" d="M689,519.7v-12L720,525.68v12Z"/><path id="Path_298" data-name="Path 298" class="cls-10" d="M699.33,501.75l-10.36,6L720,525.68l10.36-6Z"/><path id="Path_299" data-name="Path 299" class="cls-7" d="M782.2,501.76V453.91l-10.36,6v47.85Z"/><path id="Path_300" data-name="Path 300" class="cls-7" d="M740.76,525.67V477.82l-10.36,6v47.85Z"/><path id="Path_301" data-name="Path 301" class="cls-8" d="M761.47,501.75V477.83l10.36-6v35.89Z"/><path id="Path_302" data-name="Path 302" class="cls-8" d="M720,525.67V477.82l10.36,6v47.85Z"/><path id="Path_303" data-name="Path 303" class="cls-7" d="M699.33,501.75V477.83l-10.36-6v35.89Z"/><path id="Path_304" data-name="Path 304" class="cls-8" d="M678.61,501.76V453.91l10.36,6v47.85Z"/><path id="Path_305" data-name="Path 305" class="cls-7" d="M771.84,471.85v-12l-31.08,17.95v12Z"/><path id="Path_306" data-name="Path 306" class="cls-10" d="M761.48,453.9l10.36,6-31.07,17.95-10.37-6Z"/><path id="Path_307" data-name="Path 307" class="cls-8" d="M689,471.85v-12L720,477.83v12Z"/><path id="Path_308" data-name="Path 308" class="cls-10" d="M699.33,453.9l-10.36,6L720,477.83l10.36-6Z"/><path id="Path_309" data-name="Path 309" class="cls-7" d="M782.2,453.9V406.05l-10.36,6v47.86Z"/><path id="Path_310" data-name="Path 310" class="cls-7" d="M740.76,477.83V430l-10.36,6v47.85Z"/><path id="Path_311" data-name="Path 311" class="cls-8" d="M761.47,453.9V430l10.36-6v35.88Z"/><path id="Path_312" data-name="Path 312" class="cls-8" d="M720,477.83V430l10.36,6v47.85Z"/><path id="Path_313" data-name="Path 313" class="cls-7" d="M699.33,453.9V430L689,424v35.88Z"/><path id="Path_314" data-name="Path 314" class="cls-8" d="M678.61,453.9V406.05L689,412v47.86Z"/><path id="Path_315" data-name="Path 315" class="cls-7" d="M771.84,424V412l-31.08,18v12Z"/><path id="Path_316" data-name="Path 316" class="cls-10" d="M761.48,406.05l10.36,6-31.07,18-10.37-6Z"/><path id="Path_317" data-name="Path 317" class="cls-8" d="M689,424V412L720,430v12Z"/><path id="Path_318" data-name="Path 318" class="cls-10" d="M699.33,406.05,689,412,720,430l10.36-6Z"/><path id="Path_319" data-name="Path 319" class="cls-7" d="M782.2,406.05V358.2l-10.36,6V412Z"/><path id="Path_320" data-name="Path 320" class="cls-7" d="M740.76,430V382.13l-10.36,6V436Z"/><path id="Path_321" data-name="Path 321" class="cls-8" d="M761.47,406.05V382.13l10.36-6V412Z"/><path id="Path_322" data-name="Path 322" class="cls-8" d="M720,430V382.13l10.36,6V436Z"/><path id="Path_323" data-name="Path 323" class="cls-7" d="M699.33,406.05V382.13l-10.36-6V412Z"/><path id="Path_324" data-name="Path 324" class="cls-8" d="M678.61,406.05V358.2l10.36,6V412Z"/><path id="Path_325" data-name="Path 325" class="cls-7" d="M771.84,376.14v-12l-31.08,17.94v12Z"/><path id="Path_326" data-name="Path 326" class="cls-10" d="M761.48,358.2l10.36,6-31.07,17.94-10.37-6Z"/><path id="Path_327" data-name="Path 327" class="cls-8" d="M689,376.14v-12L720,382.12v12Z"/><path id="Path_328" data-name="Path 328" class="cls-10" d="M699.33,358.2l-10.36,6L720,382.12l10.36-6Z"/><path id="Path_329" data-name="Path 329" class="cls-7" d="M782.2,358.2V310.35l-10.36,6v47.85Z"/><path id="Path_330" data-name="Path 330" class="cls-7" d="M740.76,382.13V334.27l-10.36,6v47.85Z"/><path id="Path_331" data-name="Path 331" class="cls-8" d="M761.47,358.2V334.27l10.36-6v35.89Z"/><path id="Path_332" data-name="Path 332" class="cls-8" d="M720,382.13V334.27l10.36,6v47.85Z"/><path id="Path_333" data-name="Path 333" class="cls-7" d="M699.33,358.2V334.27l-10.36-6v35.89Z"/><path id="Path_334" data-name="Path 334" class="cls-8" d="M678.61,358.2V310.35l10.36,6v47.85Z"/><path id="Path_335" data-name="Path 335" class="cls-7" d="M771.84,328.29v-12l-31.08,17.94v12Z"/><path id="Path_336" data-name="Path 336" class="cls-8" d="M689,328.29v-12L720,334.27v12Z"/><path id="Path_337" data-name="Path 337" class="cls-7" d="M730.4,400.07v-12l-31.07,17.95v12Z"/><path id="Path_338" data-name="Path 338" class="cls-10" d="M720,382.13l10.36,6L689,412l-10.36-6Z"/><path id="Path_339" data-name="Path 339" class="cls-7" d="M699.33,418V358.2l-10.36,6V424Z"/><path id="Path_340" data-name="Path 340" class="cls-8" d="M678.61,418V358.2l10.36,6V424Z"/><path id="Path_341" data-name="Path 341" class="cls-7" d="M657.89,394.08V358.19l-10.35-6v47.85Z"/><path id="Path_342" data-name="Path 342" class="cls-8" d="M637.17,394.09V334.27l10.36,6v59.82Z"/><path id="Path_343" data-name="Path 343" class="cls-7" d="M730.4,352.22v-12l-31.07,17.95v12Z"/><path id="Path_344" data-name="Path 344" class="cls-7" d="M689,328.29v-12L657.9,334.27v12Z"/><path id="Path_345" data-name="Path 345" class="cls-12" d="M720,334.27l10.36,6L689,364.18l-10.36-6Z"/><path id="Path_346" data-name="Path 346" class="cls-8" d="M647.53,352.22v-12l31.07,17.95v12Z"/><path id="Path_347" data-name="Path 347" class="cls-12" d="M647.53,328.29l-10.36,6,41.44,23.93,10.36-6Z"/><path id="Path_348" data-name="Path 348" class="cls-12" d="M689,304.37l-10.36,6,51.79,29.9,10.36-6Z"/><path id="Path_349" data-name="Path 349" class="cls-12" d="M678.61,310.35l10.36,6L657.9,334.27l-10.36-6Z"/><path id="Path_350" data-name="Path 350" class="cls-12" d="M761.48,310.35l10.36,6-31.07,17.94-10.37-6Z"/><path id="Path_351" data-name="Path 351" class="cls-7" d="M689,424V412L647.53,436v12Z"/><path id="Path_352" data-name="Path 352" class="cls-10" d="M678.61,406.05,689,412l-51.8,29.91-10.36-6Z"/><path id="Path_353" data-name="Path 353" class="cls-7" d="M647.53,447.92V388.11l-10.36,6V453.9Z"/><path id="Path_354" data-name="Path 354" class="cls-8" d="M626.81,447.92V388.11l10.36,6V453.9Z"/><path id="Path_355" data-name="Path 355" class="cls-7" d="M606.1,424V388.11l-10.36-6V430Z"/><path id="Path_356" data-name="Path 356" class="cls-8" d="M585.38,424V364.18l10.35,6V430Z"/><path id="Path_357" data-name="Path 357" class="cls-7" d="M689,376.14v-12L647.53,388.1v12Z"/><path id="Path_358" data-name="Path 358" class="cls-7" d="M647.53,352.22v-12l-41.44,23.93v12Z"/><path id="Path_359" data-name="Path 359" class="cls-12" d="M678.61,358.2l10.36,6-51.8,29.91-10.36-6Z"/><path id="Path_360" data-name="Path 360" class="cls-8" d="M595.73,382.12v-12l31.08,17.95v12Z"/><path id="Path_361" data-name="Path 361" class="cls-12" d="M595.73,358.2l-10.35,6,41.43,23.92,10.36-6Z"/><path id="Path_362" data-name="Path 362" class="cls-12" d="M637.17,334.27l10.36,6-41.44,23.93-10.36-6Z"/><path id="Path_363" data-name="Path 363" class="cls-7" d="M637.17,453.89v-12l-41.44,23.93v12Z"/><path id="Path_364" data-name="Path 364" class="cls-10" d="M626.81,436l10.36,6-51.8,29.91-10.36-6Z"/><path id="Path_365" data-name="Path 365" class="cls-7" d="M595.73,477.83V418l-10.35,6v59.82Z"/><path id="Path_366" data-name="Path 366" class="cls-8" d="M575,477.83V418l10.36,6v59.82Z"/><path id="Path_367" data-name="Path 367" class="cls-7" d="M554.3,453.9V418l-10.36-6v47.85Z"/><path id="Path_368" data-name="Path 368" class="cls-8" d="M533.58,453.9V394.09l10.36,6v59.81Z"/><path id="Path_369" data-name="Path 369" class="cls-7" d="M637.17,406.05v-12L595.73,418v12Z"/><path id="Path_370" data-name="Path 370" class="cls-7" d="M595.73,382.12v-12L554.3,394.09v12Z"/><path id="Path_371" data-name="Path 371" class="cls-12" d="M626.81,388.1l10.36,6L585.37,424,575,418Z"/><path id="Path_372" data-name="Path 372" class="cls-8" d="M543.94,412v-12L575,418v12Z"/><path id="Path_373" data-name="Path 373" class="cls-12" d="M543.94,388.1l-10.36,6L575,418l10.36-6Z"/><path id="Path_374" data-name="Path 374" class="cls-12" d="M585.37,364.18l10.36,6L554.3,394.08l-10.36-6Z"/><path id="Path_375" data-name="Path 375" class="cls-7" d="M585.38,483.81v-12l-41.44,23.92v12Z"/><path id="Path_376" data-name="Path 376" class="cls-10" d="M575,465.87l10.36,6-51.79,29.9-10.36-6Z"/><path id="Path_377" data-name="Path 377" class="cls-7" d="M543.94,507.74V447.92l-10.36,6v59.82Z"/><path id="Path_378" data-name="Path 378" class="cls-8" d="M523.22,507.74V447.92l10.36,6v59.82Z"/><path id="Path_379" data-name="Path 379" class="cls-7" d="M502.5,483.81V447.92l-10.36-6v47.85Z"/><path id="Path_380" data-name="Path 380" class="cls-8" d="M481.78,483.81V424l10.36,6v59.81Z"/><path id="Path_381" data-name="Path 381" class="cls-7" d="M585.38,436V424l-41.44,23.92v12Z"/><path id="Path_382" data-name="Path 382" class="cls-7" d="M543.94,412v-12L502.5,424v12Z"/><path id="Path_383" data-name="Path 383" class="cls-12" d="M575,418l10.36,6-51.79,29.9-10.36-6Z"/><path id="Path_384" data-name="Path 384" class="cls-8" d="M492.14,441.94V430l31.07,17.94v12Z"/><path id="Path_385" data-name="Path 385" class="cls-12" d="M492.14,418l-10.36,6,41.44,23.92,10.36-6Z"/><path id="Path_386" data-name="Path 386" class="cls-12" d="M533.58,394.09l10.36,6L502.5,424l-10.36-6Z"/><path id="Path_387" data-name="Path 387" class="cls-7" d="M533.58,513.72v-12l-41.44,23.93v12Z"/><path id="Path_388" data-name="Path 388" class="cls-10" d="M523.22,495.77l10.36,6-51.8,29.91-10.36-6Z"/><path id="Path_389" data-name="Path 389" class="cls-7" d="M492.14,537.64V477.83l-10.36,6v59.82Z"/><path id="Path_390" data-name="Path 390" class="cls-8" d="M471.42,537.64V477.83l10.36,6v59.81Z"/><path id="Path_391" data-name="Path 391" class="cls-7" d="M450.7,513.72V477.83l-10.36-6V519.7Z"/><path id="Path_392" data-name="Path 392" class="cls-8" d="M430,513.72V453.9l10.36,6V519.7Z"/><path id="Path_393" data-name="Path 393" class="cls-7" d="M533.58,465.87v-12l-41.44,23.93v12Z"/><path id="Path_394" data-name="Path 394" class="cls-7" d="M492.14,441.94V430L450.7,453.9v12Z"/><path id="Path_395" data-name="Path 395" class="cls-12" d="M523.22,447.92l10.36,6-51.8,29.91-10.36-6Z"/><path id="Path_396" data-name="Path 396" class="cls-8" d="M440.34,471.85v-12l31.07,17.95v12Z"/><path id="Path_397" data-name="Path 397" class="cls-12" d="M440.35,447.92l-10.36,6,41.43,23.93,10.36-6Z"/><path id="Path_398" data-name="Path 398" class="cls-12" d="M481.78,424l10.36,6L450.7,453.9l-10.35-6Z"/><path id="Path_399" data-name="Path 399" class="cls-7" d="M440.34,519.7v-12l-41.43,23.92v12Z"/><path id="Path_400" data-name="Path 400" class="cls-10" d="M430,501.75l10.36,6-51.8,29.9-10.36-6Z"/><path id="Path_401" data-name="Path 401" class="cls-7" d="M398.91,543.62v-29.9l-10.36,12v23.93Z"/><path id="Path_402" data-name="Path 402" class="cls-8" d="M378.19,543.63V507.74l10.36,6v35.89Z"/><path id="Path_403" data-name="Path 403" class="cls-7" d="M440.35,471.85v-12l-51.8,53.84v12Z"/><path id="Path_404" data-name="Path 404" class="cls-12" d="M430,453.9l10.36,6-51.8,53.83-10.36-6Z"/><path id="Path_405" data-name="Path 405" class="cls-7" d="M481.78,543.62v-12l-41.44,23.93v12Z"/><path id="Path_406" data-name="Path 406" class="cls-10" d="M471.42,525.69l10.36,6L430,561.57l-10.36-6Z"/><path id="Path_407" data-name="Path 407" class="cls-7" d="M440.35,567.55V537.64L430,549.6v23.93Z"/><path id="Path_408" data-name="Path 408" class="cls-8" d="M419.63,567.55V531.66l10.35,6v35.89Z"/><path id="Path_409" data-name="Path 409" class="cls-7" d="M481.78,495.77v-12L430,537.64v12Z"/><path id="Path_410" data-name="Path 410" class="cls-12" d="M471.42,477.83l10.36,6L430,537.64l-10.36-6Z"/><path id="Path_411" data-name="Path 411" class="cls-8" d="M388.54,549.61v-12l31.07,18v12Z"/><path id="Path_412" data-name="Path 412" class="cls-10" d="M398.91,531.66l-10.36,6,31.07,18v-12Z"/><g id="Group_22" data-name="Group 22"><path id="Path_413" data-name="Path 413" class="cls-7" d="M782.2,310.32V262.47l-10.36,6V316.3Z"/><path id="Path_414" data-name="Path 414" class="cls-7" d="M740.76,334.24V286.39l-10.36,6v47.85Z"/><path id="Path_415" data-name="Path 415" class="cls-8" d="M761.47,310.32V286.39l10.36-6V316.3Z"/><path id="Path_416" data-name="Path 416" class="cls-8" d="M720,334.24V286.39l10.36,6v47.85Z"/><path id="Path_417" data-name="Path 417" class="cls-7" d="M699.33,310.32V286.39l-10.36-6V316.3Z"/><path id="Path_418" data-name="Path 418" class="cls-8" d="M678.61,310.32V262.47l10.36,6V316.3Z"/><path id="Path_419" data-name="Path 419" class="cls-7" d="M771.84,280.41v-12l-31.09,17.94v12Z"/><path id="Path_420" data-name="Path 420" class="cls-8" d="M689,280.41v-12L720,286.39v12Z"/><path id="Path_421" data-name="Path 421" class="cls-10" d="M689,256.49l-10.36,6,51.79,29.9,10.36-6Z"/></g><g id="Group_23" data-name="Group 23"><path id="Path_422" data-name="Path 422" class="cls-7" d="M720,214.58v-12L689,220.57v12Z"/><path id="Path_423" data-name="Path 423" class="cls-10" d="M720.05,190.66l10.35,6-31.07,17.94-10.35-6Z"/><path id="Path_424" data-name="Path 424" class="cls-7" d="M782.2,262.44V214.59l-10.36,6v47.85Z"/><path id="Path_425" data-name="Path 425" class="cls-7" d="M740.76,286.36V238.52l-10.36,6v47.85Z"/><path id="Path_426" data-name="Path 426" class="cls-8" d="M761.47,262.44V238.51l10.36-6v35.89Z"/><path id="Path_427" data-name="Path 427" class="cls-8" d="M720,286.36V238.52l10.36,6v47.85Z"/><path id="Path_428" data-name="Path 428" class="cls-7" d="M699.33,262.44V238.51l-10.36-6v35.89Z"/><path id="Path_429" data-name="Path 429" class="cls-8" d="M678.61,262.44V214.59l10.36,6v47.85Z"/><path id="Path_430" data-name="Path 430" class="cls-7" d="M771.84,232.53v-12l-31.09,17.94v12Z"/><path id="Path_431" data-name="Path 431" class="cls-8" d="M689,232.53v-12L720,238.51v12Z"/><path id="Path_432" data-name="Path 432" class="cls-10" d="M689,208.6l-10.36,6,51.79,29.91,10.36-6Z"/></g></g><path id="Path_433" data-name="Path 433" class="cls-12" d="M678.61,214.58l52-30.79,51.59,30.79-51.8,29.91Z"/></g></g></g></g></svg>