<svg id="capitalism_logo" data-name="capitalism logo" xmlns="http://www.w3.org/2000/svg" width="270" height="23.438" viewBox="0 0 270 23.438">
  <g id="SvgjsG8347_1_" transform="translate(0 0)">
    <path id="Path_25" data-name="Path 25" d="M64.006,176.046a.716.716,0,0,1,.469.188c.094.188.188.281.188.469a4.432,4.432,0,0,1-1.031,2.437,9.932,9.932,0,0,1-2.156,2.25,7.255,7.255,0,0,1-1.5.656c-.562.188-.937.281-1.312.375-.094,0-.188,0-.188.094a9.127,9.127,0,0,1-2.25.188,12.711,12.711,0,0,1-6.094-1.406,9.944,9.944,0,0,1-3.937-3.938,12.335,12.335,0,0,1-1.406-6c0-3.75,1.031-6.562,3.094-8.625s4.875-3.094,8.531-3.094a15.1,15.1,0,0,1,2.438.188h.281c.188,0,.281.094.469.187h0a7.6,7.6,0,0,1,4.687,4.875,2.54,2.54,0,0,1-.094,1.875,2.188,2.188,0,0,1-1.125,1.125,2.122,2.122,0,0,1-1.687-.094,2.537,2.537,0,0,1-1.031-.938,1.6,1.6,0,0,1,0-1.312,2.486,2.486,0,0,1,.469-.562,2.485,2.485,0,0,0,.469-.563,4.566,4.566,0,0,0,.281-.656v-.656a2.458,2.458,0,0,0-.469-.844,5.991,5.991,0,0,0-4.031-1.5,5.389,5.389,0,0,0-4.781,2.719,10.792,10.792,0,0,0-1.406,3.938,23.833,23.833,0,0,0-.281,3.844c0,3.188.562,5.625,1.781,7.406a5.56,5.56,0,0,0,4.875,2.625,5.9,5.9,0,0,0,4.125-1.5,6.566,6.566,0,0,0,2.156-3.375.594.594,0,0,1,.563-.469l-.094.094Zm30.187,4.969c.188,0,.375,0,.469.188.188.094.188.187.281.375a.689.689,0,0,1-.188.562c-.094.188-.281.188-.469.188H84.35a.716.716,0,0,1-.469-.188c-.094-.187-.188-.281-.188-.469h0a.716.716,0,0,1,.188-.469.689.689,0,0,1,.562-.187l1.031.094c.75.094,1.125-.187,1.125-.938a5.015,5.015,0,0,0-.375-1.5l-1.406-3.094c-.094-.187-.187-.187-.375-.187H76.568c-.094,0-.188.094-.281.187l-1.219,2.906a4.548,4.548,0,0,0-.562,1.875c0,.563.281.75.844.75l1.031-.094c.188,0,.375,0,.469.188.188.094.188.281.188.469a.641.641,0,0,1-.656.656H70.85a.716.716,0,0,1-.469-.188c-.094-.187-.187-.281-.187-.469a.716.716,0,0,1,.188-.469c.094-.187.281-.187.469-.187h.563a1.616,1.616,0,0,0,1.313-.75,12.483,12.483,0,0,0,1.125-2.25L81.256,160.2a1.414,1.414,0,0,1,1.313-.844,1.766,1.766,0,0,1,.75.188,2.033,2.033,0,0,1,.563.656l7.5,17.906a11.278,11.278,0,0,0,1.125,2.156,1.52,1.52,0,0,0,1.313.656h.188Zm-17.062-7.5v.281c.094.094.187.188.281.188h6.281c.094,0,.188,0,.281-.187a.176.176,0,0,0,0-.281l-3.187-7.5c-.094-.187-.187-.187-.281-.187s-.188.094-.281.187Zm44.531-12a5.758,5.758,0,0,1,2.063,4.781,6.5,6.5,0,0,1-1.969,4.969,7.566,7.566,0,0,1-5.344,1.875h-3a.716.716,0,0,0-.469.188c-.187.187-.187.281-.187.562v6.469c0,.563.281.844.75.844h1.125c.187,0,.375,0,.469.187.187.094.187.281.187.469a.641.641,0,0,1-.656.656H106.1a.716.716,0,0,1-.469-.187.793.793,0,0,1-.188-.563.716.716,0,0,1,.187-.469.516.516,0,0,1,.469-.187h.656c.375,0,.656-.281.656-.844V162.078a1.093,1.093,0,0,0-.188-.656.791.791,0,0,0-.656-.187H106.1a.689.689,0,0,1-.563-.188.7.7,0,0,1-.094-.469.641.641,0,0,1,.656-.656h9.281c2.813,0,4.875.469,6.281,1.594Zm-4.406,8.625a7.217,7.217,0,0,0,1.031-3.938,6.25,6.25,0,0,0-1.031-3.656,3.018,3.018,0,0,0-2.625-1.406h-1.5c-.094,0-.188,0-.281.187-.094.094-.187.188-.187.281v9.375a.641.641,0,0,0,.656.656h1.406a2.7,2.7,0,0,0,2.531-1.5Zm23.906-8.719a.689.689,0,0,0-.187.563v18.281c0,.562.187.844.75.844h.563c.187,0,.375,0,.469.188.188.094.188.281.188.469a.641.641,0,0,1-.656.656h-7.969a.716.716,0,0,1-.469-.187.516.516,0,0,1-.187-.469c0-.187,0-.375.187-.469.188-.187.281-.187.563-.187h.656c.375,0,.656-.281.656-.844V161.984a1.333,1.333,0,0,0-.188-.563c-.187-.187-.281-.187-.562-.187h-.563a.689.689,0,0,1-.563-.188c-.187-.094-.187-.281-.187-.469s0-.375.187-.469a.716.716,0,0,1,.469-.187h7.969a.716.716,0,0,1,.469.188.516.516,0,0,1,.188.469.716.716,0,0,1-.187.469c-.094.188-.281.188-.469.188h-.656a.716.716,0,0,0-.469.187Zm28.031-1.594h1.125c.187,0,.375,0,.469.187s.188.281.188.469v4.594c0,.188,0,.375-.188.469a.716.716,0,0,1-.469.188.487.487,0,0,1-.375-.188.71.71,0,0,1-.187-.375,4.253,4.253,0,0,0-1.031-2.812,4.774,4.774,0,0,0-3.562-1.125h-.75a.623.623,0,0,0-.469.375v18.656c0,.562.281.844.75.844h1.313c.188,0,.375,0,.469.188a.516.516,0,0,1,.187.469v.094a.716.716,0,0,1-.187.469c-.187.094-.281.187-.469.187h-9.469a.641.641,0,0,1-.656-.656v-.094c0-.187.094-.281.188-.469.187-.094.281-.187.469-.187l1.313.094a.81.81,0,0,0,.562-.281,1.355,1.355,0,0,0,.188-.656V161.609c0-.094-.094-.188-.188-.281a.487.487,0,0,0-.375-.187h-.656a4.774,4.774,0,0,0-3.562,1.125,4.3,4.3,0,0,0-1.125,2.813.487.487,0,0,1-.187.375.716.716,0,0,1-.469.187h0a.487.487,0,0,1-.375-.187c-.188-.094-.188-.281-.188-.469V160.39c0-.187,0-.375.188-.469a.716.716,0,0,1,.469-.187h1.125l15.938.094ZM200.6,181.015c.187,0,.375,0,.469.188.188.094.188.187.281.375a.689.689,0,0,1-.187.562c-.094.188-.281.188-.469.188H190.662a.716.716,0,0,1-.469-.188c-.094-.187-.188-.281-.188-.469h0a.716.716,0,0,1,.188-.469.689.689,0,0,1,.563-.187l1.031.094c.75.094,1.125-.187,1.125-.938a5.015,5.015,0,0,0-.375-1.5l-1.312-3.094c-.094-.187-.187-.187-.375-.187h-7.875c-.094,0-.187.094-.281.187l-1.219,2.906a4.548,4.548,0,0,0-.563,1.875c0,.563.281.75.844.75l1.031-.094c.188,0,.375,0,.469.188.187.094.187.281.187.469a.641.641,0,0,1-.656.656h-5.531a.716.716,0,0,1-.469-.188c-.094-.187-.187-.281-.187-.469a.716.716,0,0,1,.188-.469c.094-.187.281-.187.469-.187h.563a1.616,1.616,0,0,0,1.312-.75,12.483,12.483,0,0,0,1.125-2.25l7.406-17.812a1.414,1.414,0,0,1,1.312-.844,1.766,1.766,0,0,1,.75.188,2.032,2.032,0,0,1,.562.656l7.5,17.906a11.277,11.277,0,0,0,1.125,2.156,1.52,1.52,0,0,0,1.312.656h.188Zm-17.156-7.5v.281c.094.094.188.188.281.188h6.281c.094,0,.188,0,.281-.187a.176.176,0,0,0,0-.281l-3.187-7.5c-.094-.187-.187-.187-.281-.187s-.187.094-.281.187Zm44.813,2.438a.716.716,0,0,1,.469.188c.094.188.187.281.187.469v5.156a.716.716,0,0,1-.187.469c-.094.188-.281.188-.469.188H212.6a.716.716,0,0,1-.469-.187.516.516,0,0,1-.187-.469h0c0-.187,0-.375.187-.469a1.332,1.332,0,0,1,.562-.187l.75.094q.562,0,.562-.844V161.984a1.333,1.333,0,0,0-.187-.563c-.094-.187-.281-.187-.469-.187h-.563a.689.689,0,0,1-.562-.188c-.188-.094-.188-.281-.188-.469s0-.375.188-.469a.716.716,0,0,1,.469-.187h8.438a.716.716,0,0,1,.469.188c.094.187.188.281.188.469a.716.716,0,0,1-.187.469c-.094.188-.281.188-.469.188h-1.219a.716.716,0,0,0-.469.187.689.689,0,0,0-.187.563v18.563c0,.375.187.469.469.469h3.094a5.053,5.053,0,0,0,3.75-1.312,4.963,4.963,0,0,0,1.312-3.187.487.487,0,0,1,.188-.375c-.188-.094,0-.187.187-.187Zm18-14.531a.689.689,0,0,0-.187.563v18.281c0,.562.187.844.75.844h.563c.187,0,.375,0,.469.188.188.094.188.281.188.469a.641.641,0,0,1-.656.656h-7.875a.716.716,0,0,1-.469-.187.516.516,0,0,1-.188-.469c0-.187,0-.375.188-.469.188-.187.281-.187.562-.187h.656c.375,0,.656-.281.656-.844V161.984a1.333,1.333,0,0,0-.188-.563c-.187-.187-.281-.187-.562-.187H239.6a.689.689,0,0,1-.562-.188c-.188-.094-.188-.281-.188-.469s0-.375.188-.469a.716.716,0,0,1,.469-.187h7.969a.716.716,0,0,1,.469.188.516.516,0,0,1,.188.469.717.717,0,0,1-.187.469c-.094.188-.281.188-.469.188h-.656a.793.793,0,0,0-.562.187Zm27.375,10.313a5.57,5.57,0,0,1,1.219,3.844,6.86,6.86,0,0,1-.937,3.656,6.957,6.957,0,0,1-2.812,2.625,9.4,9.4,0,0,1-4.5.938,16.929,16.929,0,0,1-3.562-.469,14.965,14.965,0,0,0-3-.563h-.75c-.188,0-.281,0-.375-.094a.487.487,0,0,1-.187-.375c0-.563.094-1.313.094-2.25a26.367,26.367,0,0,0-.094-2.813,1.829,1.829,0,0,0-.094-.75c0-.188,0-.281.187-.375a.487.487,0,0,1,.375-.187c.187,0,.281,0,.375.094a.487.487,0,0,1,.187.375,7.751,7.751,0,0,0,2.063,4.5,5.94,5.94,0,0,0,4.313,1.688,4.3,4.3,0,0,0,3-1.031,3.816,3.816,0,0,0,1.125-2.813c0-1.781-1.219-3.094-3.562-4.031l-3.656-1.5c-2.906-1.219-4.313-3.187-4.313-5.812a6.934,6.934,0,0,1,.844-3.375,7.36,7.36,0,0,1,2.625-2.437,9.353,9.353,0,0,1,4.219-.937,11.935,11.935,0,0,1,2.063.188,16.9,16.9,0,0,1,1.781.469,5.43,5.43,0,0,0,1.219.375,2.378,2.378,0,0,0,1.125.188h.469c.187,0,.281,0,.375.094a.487.487,0,0,1,.188.375c0,.563-.094,1.313-.094,2.25v1.781c0,.187,0,.375-.188.469a.487.487,0,0,1-.375.187h0c-.187,0-.281,0-.375-.187s-.188-.188-.188-.375a4.783,4.783,0,0,0-1.594-3.281,5.7,5.7,0,0,0-3.937-1.5,4.335,4.335,0,0,0-2.906.938,2.846,2.846,0,0,0-1.125,1.969,2.677,2.677,0,0,0,.75,2.438,6.035,6.035,0,0,0,2.438,1.5l3.188,1.313a12.68,12.68,0,0,1,4.406,2.906Zm39.75,9.375h.656a.689.689,0,0,1,.563.188c.187.094.187.281.187.469s0,.375-.187.469a.716.716,0,0,1-.469.188H305.6a.716.716,0,0,1-.469-.187c-.094-.188-.188-.281-.188-.469a.716.716,0,0,1,.188-.469c.094-.187.281-.187.469-.187h1.125c.563,0,.75-.281.75-.844V164.89c0-.094,0-.187-.094-.187a.344.344,0,0,0-.281-.094.2.2,0,0,0-.188.188l-7.875,17.438a.914.914,0,0,1-1.688,0l-8.812-18.562c-.094-.094-.094-.188-.187-.188s-.188,0-.188.094c-.094,0-.094.094-.094.188v16.406c0,.563.188.844.75.844h1.125a.689.689,0,0,1,.562.188.679.679,0,0,1,0,.937c-.187.094-.281.188-.469.188h-4.969a.716.716,0,0,1-.469-.188.516.516,0,0,1-.187-.469.716.716,0,0,1,.188-.469c.188-.187.281-.187.563-.187h.75c.469,0,.75-.281.75-.844v-18.75c0-.187-.188-.187-.375-.187h-.937c-.187,0-.375,0-.469-.188-.187-.094-.187-.281-.187-.469a.641.641,0,0,1,.656-.656h6.281a1.166,1.166,0,0,1,1.125.75l7.313,15.188c.094.094.188.187.281.187.187,0,.187-.094.281-.187l6.844-15.094a1.322,1.322,0,0,1,1.125-.75h5.531a.716.716,0,0,1,.469.188.516.516,0,0,1,.187.469c0,.188,0,.375-.187.469-.187.187-.281.187-.562.187h-.563a.716.716,0,0,0-.469.188.689.689,0,0,0-.188.562v18.281c-.187.469.094.75.563.75Z" transform="translate(-44.787 -159.359)" fill="#a27351"/>
  </g>
</svg>
